# xmcd
#
# Track frame offsets:
#	150
#	33493
#	67020
#	92312
#	125408
#	143886
#	174202
#	199186
#	225643
#	248403
#	273658
#
# Disc length: 3969 seconds
#
# Revision: 1
# Processed by: cddbd v1.5.2PL0 Copyright (c) Steve Scherf et al.
# Submitted via: audiograbber 1.83.01
#
DISCID=910f7f0b
DTITLE=Mike Stern - Trip
DYEAR=2017
DGENRE=Jazz
TTITLE0=Trip
TTITLE1=Blueprint
TTITLE2=Half Crazy
TTITLE3=Screws
TTITLE4=Gone
TTITLE5=Watchacallit
TTITLE6=Emilia
TTITLE7=Hope For That
TTITLE8=I Believe You
TTITLE9=Scotch Tape And Glue
TTITLE10=B Train
EXTD=
EXTT0=
EXTT1=
EXTT2=
EXTT3=
EXTT4=
EXTT5=
EXTT6=
EXTT7=
EXTT8=
EXTT9=
EXTT10=
PLAYORDER=
